<svg width="34" height="34" viewBox="0 0 34 34" fill="none" xmlns="http://www.w3.org/2000/svg">
<path fill-rule="evenodd" clip-rule="evenodd" d="M15.5915 6.21605C13.3135 6.21605 11.1289 7.12096 9.5181 8.73172C7.90734 10.3425 7.00243 12.5271 7.00243 14.8051H5.09375C5.09375 12.0209 6.19976 9.35079 8.16846 7.38209C10.1372 5.41338 12.8073 4.30737 15.5915 4.30737C18.3756 4.30737 21.0458 5.41338 23.0145 7.38209C24.9832 9.35079 26.0892 12.0209 26.0892 14.8051H24.1805C24.1805 12.5271 23.2756 10.3425 21.6648 8.73172C20.0541 7.12096 17.8694 6.21605 15.5915 6.21605Z" fill="#323334"/>
<path fill-rule="evenodd" clip-rule="evenodd" d="M3.39687 14.2076C3.48631 14.0962 3.59963 14.0063 3.72847 13.9445C3.8573 13.8827 3.99837 13.8507 4.14125 13.8507H27.0454C27.1882 13.8508 27.3291 13.8829 27.4579 13.9446C27.5866 14.0064 27.6999 14.0963 27.7892 14.2077C27.8786 14.319 27.9419 14.4491 27.9743 14.5881C28.0068 14.7272 28.0076 14.8718 27.9768 15.0112L24.4916 30.6948C24.3504 31.3307 23.9966 31.8995 23.4886 32.3073C22.9806 32.715 22.3487 32.9373 21.6973 32.9375H9.48936C8.83794 32.9373 8.20605 32.715 7.69802 32.3073C7.18999 31.8995 6.8362 31.3307 6.69506 30.6948L3.20982 15.0112C3.17919 14.8721 3.1801 14.7279 3.21246 14.5892C3.24483 14.4504 3.30784 14.3207 3.39687 14.2095V14.2076ZM5.33036 15.7594L8.55793 30.2806C8.60485 30.4927 8.72272 30.6824 8.89208 30.8185C9.06144 30.9545 9.27213 31.0287 9.48936 31.0288H21.6973C21.9145 31.0287 22.1252 30.9545 22.2945 30.8185C22.4639 30.6824 22.5818 30.4927 22.6287 30.2806L25.8544 15.7594H5.33226H5.33036Z" fill="#323334"/>
<circle cx="23.653" cy="26.6087" r="7.3913" fill="#F2994A"/>
<path d="M22.9189 25.8203H23.6709C24.029 25.8203 24.2943 25.7308 24.4668 25.5518C24.6393 25.3727 24.7256 25.1351 24.7256 24.8389C24.7256 24.5524 24.6393 24.3294 24.4668 24.1699C24.2975 24.0104 24.0632 23.9307 23.7637 23.9307C23.4935 23.9307 23.2673 24.0055 23.085 24.1553C22.9027 24.3018 22.8115 24.4938 22.8115 24.7314H21.4004C21.4004 24.3604 21.4997 24.0283 21.6982 23.7354C21.9001 23.4391 22.18 23.208 22.5381 23.042C22.8994 22.876 23.2965 22.793 23.7295 22.793C24.4814 22.793 25.0706 22.9736 25.4971 23.335C25.9235 23.693 26.1367 24.1878 26.1367 24.8193C26.1367 25.1449 26.0374 25.4443 25.8389 25.7178C25.6403 25.9912 25.3799 26.2012 25.0576 26.3477C25.458 26.4909 25.7559 26.7057 25.9512 26.9922C26.1497 27.2786 26.249 27.6172 26.249 28.0078C26.249 28.6393 26.0179 29.1455 25.5557 29.5264C25.0967 29.9072 24.488 30.0977 23.7295 30.0977C23.0199 30.0977 22.4388 29.9105 21.9863 29.5361C21.5371 29.1618 21.3125 28.667 21.3125 28.0518H22.7236C22.7236 28.3187 22.8229 28.5368 23.0215 28.7061C23.2233 28.8753 23.4707 28.96 23.7637 28.96C24.099 28.96 24.361 28.8721 24.5498 28.6963C24.7419 28.5173 24.8379 28.2812 24.8379 27.9883C24.8379 27.2786 24.4473 26.9238 23.666 26.9238H22.9189V25.8203Z" fill="white"/>
</svg>
