<svg width="13" height="13" viewBox="0 0 13 13" fill="none" xmlns="http://www.w3.org/2000/svg">
<path fill-rule="evenodd" clip-rule="evenodd" d="M6.78345 2.59949L6.22624 2.02673C4.91831 0.682281 2.52006 1.14623 1.65432 2.83651C1.24788 3.63153 1.15617 4.77937 1.89834 6.24428C2.61331 7.65479 4.10076 9.34429 6.78345 11.1846C9.46614 9.34429 10.9528 7.65479 11.6686 6.24428C12.4107 4.77859 12.3198 3.63153 11.9126 2.83651C11.0468 1.14623 8.64859 0.681504 7.34066 2.02596L6.78345 2.59949ZM6.78345 12.121C-5.13245 4.24702 3.11457 -1.8986 6.64667 1.35218C6.6933 1.39492 6.73915 1.43922 6.78345 1.48507C6.8273 1.43926 6.87292 1.39519 6.92022 1.35295C10.4516 -1.90016 18.6993 4.24625 6.78345 12.121Z" fill="#323334"/>
</svg>
