<svg width="17" height="16" viewBox="0 0 17 16" fill="none" xmlns="http://www.w3.org/2000/svg">
<path d="M8.44913 5.34938C7.02068 5.34938 5.85496 6.51187 5.85496 7.93636C5.85496 9.36085 7.02068 10.5233 8.44913 10.5233C9.87758 10.5233 11.0433 9.36085 11.0433 7.93636C11.0433 6.51187 9.87758 5.34938 8.44913 5.34938ZM16.2297 7.93636C16.2297 6.86508 16.2394 5.80351 16.1791 4.73417C16.1188 3.4921 15.8346 2.38977 14.9239 1.48151C14.0111 0.571314 12.9077 0.289909 11.6622 0.229747C10.5879 0.169585 9.52339 0.179288 8.45108 0.179288C7.37682 0.179288 6.3123 0.169585 5.23999 0.229747C3.99447 0.289909 2.88908 0.573255 1.9783 1.48151C1.06557 2.39171 0.783382 3.4921 0.723053 4.73417C0.662723 5.80545 0.672454 6.86702 0.672454 7.93636C0.672454 9.0057 0.662723 10.0692 0.723053 11.1386C0.783382 12.3806 1.06752 13.483 1.9783 14.3912C2.89103 15.3014 3.99447 15.5828 5.23999 15.643C6.31424 15.7031 7.37877 15.6934 8.45108 15.6934C9.52533 15.6934 10.5899 15.7031 11.6622 15.643C12.9077 15.5828 14.0131 15.2995 14.9239 14.3912C15.8366 13.481 16.1188 12.3806 16.1791 11.1386C16.2414 10.0692 16.2297 9.00764 16.2297 7.93636ZM8.44913 11.9168C6.24029 11.9168 4.45765 10.1391 4.45765 7.93636C4.45765 5.73364 6.24029 3.95594 8.44913 3.95594C10.658 3.95594 12.4406 5.73364 12.4406 7.93636C12.4406 10.1391 10.658 11.9168 8.44913 11.9168ZM12.6041 4.72252C12.0884 4.72252 11.6719 4.30721 11.6719 3.79292C11.6719 3.27862 12.0884 2.86331 12.6041 2.86331C13.1198 2.86331 13.5363 3.27862 13.5363 3.79292C13.5364 3.91504 13.5124 4.03599 13.4656 4.14884C13.4188 4.2617 13.3502 4.36424 13.2636 4.45059C13.177 4.53694 13.0742 4.60541 12.961 4.65207C12.8478 4.69874 12.7265 4.72268 12.6041 4.72252Z" fill="white"/>
</svg>
