<svg width="21" height="20" viewBox="0 0 21 20" fill="none" xmlns="http://www.w3.org/2000/svg">
<g clip-path="url(#clip0_5_8473)">
<path d="M8.95875 0H7.83779L7.09048 2.85675L6.34317 0H5.09766C5.34676 0.745238 5.59586 1.36627 5.84496 2.11151C6.21862 3.10516 6.46772 3.9746 6.46772 4.47143V7.45238H7.58868V4.47143L8.95875 0ZM11.948 5.58929V3.72619C11.948 3.10516 11.8234 2.73254 11.5743 2.35992C11.3252 1.9873 10.9516 1.8631 10.4534 1.8631C9.95516 1.8631 9.58151 2.11151 9.3324 2.48413C9.0833 2.73254 8.95875 3.10516 8.95875 3.72619V5.71349C8.95875 6.33452 9.0833 6.70714 9.3324 6.95556C9.58151 7.32818 9.95516 7.45238 10.4534 7.45238C10.9516 7.45238 11.3252 7.20397 11.5743 6.83135C11.8234 6.70714 11.948 6.21032 11.948 5.58929ZM10.9516 5.8377C10.9516 6.33452 10.827 6.58294 10.4534 6.58294C10.0797 6.58294 9.95516 6.33452 9.95516 5.8377V3.47778C9.95516 2.98095 10.0797 2.73254 10.4534 2.73254C10.827 2.73254 10.9516 2.98095 10.9516 3.47778V5.8377ZM15.6845 7.45238V1.8631H14.6881V6.08611C14.439 6.45873 14.3145 6.58294 14.0654 6.58294C13.9408 6.58294 13.8163 6.45873 13.8163 6.33452V1.8631H12.8198V6.21032C12.8198 6.58294 12.8198 6.83135 12.9444 7.07976C12.9444 7.32818 13.1935 7.45238 13.5672 7.45238C13.9408 7.45238 14.3145 7.20397 14.6881 6.83135V7.45238H15.6845Z" fill="white"/>
<path d="M16.1815 13.0415C15.8081 13.0415 15.6836 13.2899 15.6836 13.7867V14.2836H16.6793V13.7867C16.6793 13.2899 16.5548 13.0415 16.1815 13.0415Z" fill="white"/>
<path d="M12.5721 13.0415C12.4476 13.0415 12.1987 13.1657 12.0742 13.2899V16.6435C12.1987 16.7677 12.4476 16.8919 12.5721 16.8919C12.821 16.8919 12.9455 16.6435 12.9455 16.1467V13.7867C12.9455 13.2899 12.821 13.0415 12.5721 13.0415Z" fill="white"/>
<path d="M18.6721 10.3089C18.423 9.43945 17.6757 8.69421 16.9284 8.69421C14.9356 8.4458 12.8182 8.4458 10.7009 8.4458C8.58349 8.4458 6.59066 8.4458 4.47329 8.69421C3.72598 8.69421 2.97867 9.43945 2.72957 10.3089C2.48047 11.551 2.48047 12.9172 2.48047 14.1593C2.48047 15.4014 2.48047 16.7676 2.72957 18.0097C2.97867 18.8791 3.60143 19.5002 4.47329 19.6244C6.59066 19.8728 8.58349 19.8728 10.7009 19.8728C12.8182 19.8728 14.8111 19.8728 16.9284 19.6244C17.8003 19.5002 18.5476 18.8791 18.6721 18.0097C18.9213 16.7676 18.9213 15.4014 18.9213 14.1593C18.9213 12.9172 18.9213 11.551 18.6721 10.3089ZM7.21342 11.4268H5.96791V17.7613H4.84695V11.4268H3.72598V10.3089H7.21342V11.4268ZM10.2027 17.7613H9.20624V17.1402C8.83259 17.6371 8.45894 17.7613 8.08528 17.7613C7.71163 17.7613 7.58708 17.6371 7.46252 17.3887C7.46252 17.2645 7.33797 17.016 7.33797 16.5192V12.172H8.33438V16.5192C8.33438 16.6434 8.45894 16.7676 8.58349 16.7676C8.83259 16.7676 8.95714 16.6434 9.20624 16.2708V12.172H10.2027V17.7613ZM13.9392 16.0224C13.9392 16.5192 13.9392 16.8918 13.8146 17.1402C13.6901 17.5129 13.441 17.7613 13.0673 17.7613C12.6937 17.7613 12.32 17.5129 12.0709 17.1402V17.6371H11.0745V10.3089H12.0709V12.6688C12.4446 12.2962 12.6937 12.0478 13.0673 12.0478C13.441 12.0478 13.6901 12.2962 13.8146 12.6688C13.9392 12.9172 13.9392 13.2898 13.9392 13.7867V16.0224ZM17.6757 15.1529H15.6829V16.1466C15.6829 16.6434 15.8075 16.8918 16.1811 16.8918C16.4302 16.8918 16.5548 16.7676 16.6793 16.5192V15.8982H17.6757V16.6434C17.6757 16.8918 17.5512 17.016 17.4266 17.2645C17.1775 17.6371 16.8039 17.8855 16.1811 17.8855C15.6829 17.8855 15.3093 17.6371 14.9356 17.2645C14.6865 17.016 14.562 16.5192 14.562 16.0224V14.1593C14.562 13.5383 14.6865 13.1656 14.8111 12.9172C15.0602 12.5446 15.4338 12.2962 16.0566 12.2962C16.5548 12.2962 16.9284 12.5446 17.1775 12.9172C17.4266 13.1656 17.4266 13.6625 17.4266 14.1593V15.1529H17.6757Z" fill="white"/>
</g>
<defs>
<clipPath id="clip0_5_8473">
<rect width="19.9282" height="19.873" fill="white" transform="translate(0.738281)"/>
</clipPath>
</defs>
</svg>
